<mxfile host="app.diagrams.net" agent="Mozilla/5.0 (Windows NT 10.0; Win64; x64) AppleWebKit/537.36 (KHTML, like Gecko) Chrome/135.0.0.0 Safari/537.36" version="26.2.14">
  <diagram name="Página-1" id="zmwKx4fvir2n1qVfiQBX">
    <mxGraphModel dx="1226" dy="671" grid="1" gridSize="10" guides="1" tooltips="1" connect="1" arrows="1" fold="1" page="1" pageScale="1" pageWidth="827" pageHeight="1169" math="0" shadow="0">
      <root>
        <mxCell id="0" />
        <mxCell id="1" parent="0" />
        <mxCell id="IF1hP8kjKiguyNGJnmrY-6" value="&lt;span data-end=&quot;163&quot; data-start=&quot;135&quot;&gt;Administrador do Sistema&lt;/span&gt;" style="shape=umlActor;verticalLabelPosition=bottom;verticalAlign=top;html=1;outlineConnect=0;" parent="1" vertex="1">
          <mxGeometry x="140" y="140" width="30" height="60" as="geometry" />
        </mxCell>
        <mxCell id="IF1hP8kjKiguyNGJnmrY-8" value="[RF001]&amp;nbsp;&lt;div&gt;Gerenciar clientes&lt;/div&gt;" style="ellipse;whiteSpace=wrap;html=1;fillColor=#dae8fc;strokeColor=#6c8ebf;" parent="1" vertex="1">
          <mxGeometry x="240" y="150" width="120" height="50" as="geometry" />
        </mxCell>
        <mxCell id="IF1hP8kjKiguyNGJnmrY-9" value="Atualizar informações pessoais do cliente" style="ellipse;whiteSpace=wrap;html=1;fillColor=#1ba1e2;fontColor=#ffffff;strokeColor=#006EAF;" parent="1" vertex="1">
          <mxGeometry x="390" y="60" width="100" height="70" as="geometry" />
        </mxCell>
        <mxCell id="IF1hP8kjKiguyNGJnmrY-10" value="" style="endArrow=classic;html=1;rounded=0;entryX=1;entryY=0;entryDx=0;entryDy=0;exitX=0.028;exitY=0.694;exitDx=0;exitDy=0;exitPerimeter=0;dashed=1;" parent="1" source="IF1hP8kjKiguyNGJnmrY-9" target="IF1hP8kjKiguyNGJnmrY-8" edge="1">
          <mxGeometry width="50" height="50" relative="1" as="geometry">
            <mxPoint x="300" y="240" as="sourcePoint" />
            <mxPoint x="350" y="190" as="targetPoint" />
          </mxGeometry>
        </mxCell>
        <mxCell id="IF1hP8kjKiguyNGJnmrY-11" value="&amp;lt;&amp;lt;include&amp;gt;&amp;gt;" style="edgeLabel;html=1;align=center;verticalAlign=middle;resizable=0;points=[];" parent="IF1hP8kjKiguyNGJnmrY-10" vertex="1" connectable="0">
          <mxGeometry x="0.0025" y="1" relative="1" as="geometry">
            <mxPoint x="7" y="-4" as="offset" />
          </mxGeometry>
        </mxCell>
        <mxCell id="IF1hP8kjKiguyNGJnmrY-12" value="Bloquear/&lt;div&gt;desbloquear cliente&lt;/div&gt;" style="ellipse;whiteSpace=wrap;html=1;fillColor=#1ba1e2;fontColor=#ffffff;strokeColor=#006EAF;" parent="1" vertex="1">
          <mxGeometry x="450" y="120" width="100" height="70" as="geometry" />
        </mxCell>
        <mxCell id="IF1hP8kjKiguyNGJnmrY-13" value="Visualizar status do cliente" style="ellipse;whiteSpace=wrap;html=1;fillColor=#1ba1e2;fontColor=#ffffff;strokeColor=#006EAF;" parent="1" vertex="1">
          <mxGeometry x="430" y="190" width="100" height="70" as="geometry" />
        </mxCell>
        <mxCell id="IF1hP8kjKiguyNGJnmrY-14" value="Alterar permissões ou status de acesso" style="ellipse;whiteSpace=wrap;html=1;fillColor=#1ba1e2;fontColor=#ffffff;strokeColor=#006EAF;" parent="1" vertex="1">
          <mxGeometry x="314" y="240" width="100" height="70" as="geometry" />
        </mxCell>
        <mxCell id="IF1hP8kjKiguyNGJnmrY-15" value="" style="endArrow=classic;html=1;rounded=0;entryX=1;entryY=0.5;entryDx=0;entryDy=0;exitX=0;exitY=0.5;exitDx=0;exitDy=0;dashed=1;" parent="1" source="IF1hP8kjKiguyNGJnmrY-12" target="IF1hP8kjKiguyNGJnmrY-8" edge="1">
          <mxGeometry width="50" height="50" relative="1" as="geometry">
            <mxPoint x="433" y="129" as="sourcePoint" />
            <mxPoint x="353" y="167" as="targetPoint" />
          </mxGeometry>
        </mxCell>
        <mxCell id="IF1hP8kjKiguyNGJnmrY-16" value="&amp;lt;&amp;lt;extends&amp;gt;&amp;gt;" style="edgeLabel;html=1;align=center;verticalAlign=middle;resizable=0;points=[];" parent="IF1hP8kjKiguyNGJnmrY-15" vertex="1" connectable="0">
          <mxGeometry x="0.0025" y="1" relative="1" as="geometry">
            <mxPoint x="7" y="1" as="offset" />
          </mxGeometry>
        </mxCell>
        <mxCell id="IF1hP8kjKiguyNGJnmrY-17" value="" style="endArrow=classic;html=1;rounded=0;entryX=1;entryY=0.5;entryDx=0;entryDy=0;exitX=0.5;exitY=0;exitDx=0;exitDy=0;dashed=1;" parent="1" source="IF1hP8kjKiguyNGJnmrY-14" edge="1">
          <mxGeometry width="50" height="50" relative="1" as="geometry">
            <mxPoint x="410" y="210" as="sourcePoint" />
            <mxPoint x="310" y="200" as="targetPoint" />
          </mxGeometry>
        </mxCell>
        <mxCell id="IF1hP8kjKiguyNGJnmrY-18" value="&amp;lt;&amp;lt;extends&amp;gt;&amp;gt;" style="edgeLabel;html=1;align=center;verticalAlign=middle;resizable=0;points=[];" parent="IF1hP8kjKiguyNGJnmrY-17" vertex="1" connectable="0">
          <mxGeometry x="0.0025" y="1" relative="1" as="geometry">
            <mxPoint x="7" y="1" as="offset" />
          </mxGeometry>
        </mxCell>
        <mxCell id="IF1hP8kjKiguyNGJnmrY-19" value="" style="endArrow=classic;html=1;rounded=0;entryX=1;entryY=1;entryDx=0;entryDy=0;exitX=0.062;exitY=0.257;exitDx=0;exitDy=0;dashed=1;exitPerimeter=0;" parent="1" source="IF1hP8kjKiguyNGJnmrY-13" target="IF1hP8kjKiguyNGJnmrY-8" edge="1">
          <mxGeometry width="50" height="50" relative="1" as="geometry">
            <mxPoint x="480" y="205" as="sourcePoint" />
            <mxPoint x="380" y="195" as="targetPoint" />
          </mxGeometry>
        </mxCell>
        <mxCell id="IF1hP8kjKiguyNGJnmrY-20" value="&amp;lt;&amp;lt;extends&amp;gt;&amp;gt;" style="edgeLabel;html=1;align=center;verticalAlign=middle;resizable=0;points=[];" parent="IF1hP8kjKiguyNGJnmrY-19" vertex="1" connectable="0">
          <mxGeometry x="0.0025" y="1" relative="1" as="geometry">
            <mxPoint x="7" y="1" as="offset" />
          </mxGeometry>
        </mxCell>
        <mxCell id="IF1hP8kjKiguyNGJnmrY-22" value="" style="endArrow=classic;html=1;rounded=0;" parent="1" edge="1">
          <mxGeometry width="50" height="50" relative="1" as="geometry">
            <mxPoint x="170" y="174.66" as="sourcePoint" />
            <mxPoint x="230" y="174.66" as="targetPoint" />
          </mxGeometry>
        </mxCell>
        <mxCell id="IF1hP8kjKiguyNGJnmrY-23" value="&lt;span data-end=&quot;163&quot; data-start=&quot;135&quot;&gt;Administrador da Empresa&lt;/span&gt;" style="shape=umlActor;verticalLabelPosition=bottom;verticalAlign=top;html=1;outlineConnect=0;" parent="1" vertex="1">
          <mxGeometry x="110" y="420" width="30" height="60" as="geometry" />
        </mxCell>
        <mxCell id="IF1hP8kjKiguyNGJnmrY-24" value="[RF002]&amp;nbsp;&lt;div&gt;&lt;div&gt;Gerenciar produtos&lt;/div&gt;&lt;/div&gt;" style="ellipse;whiteSpace=wrap;html=1;fillColor=#dae8fc;strokeColor=#6c8ebf;" parent="1" vertex="1">
          <mxGeometry x="210" y="430" width="120" height="50" as="geometry" />
        </mxCell>
        <mxCell id="IF1hP8kjKiguyNGJnmrY-25" value="Associar produto a categorias ou tags" style="ellipse;whiteSpace=wrap;html=1;fillColor=#1ba1e2;fontColor=#ffffff;strokeColor=#006EAF;" parent="1" vertex="1">
          <mxGeometry x="260" y="310" width="110" height="70" as="geometry" />
        </mxCell>
        <mxCell id="IF1hP8kjKiguyNGJnmrY-26" value="" style="endArrow=classic;html=1;rounded=0;entryX=1;entryY=0;entryDx=0;entryDy=0;exitX=0.278;exitY=0.934;exitDx=0;exitDy=0;exitPerimeter=0;dashed=1;" parent="1" source="IF1hP8kjKiguyNGJnmrY-25" target="IF1hP8kjKiguyNGJnmrY-24" edge="1">
          <mxGeometry width="50" height="50" relative="1" as="geometry">
            <mxPoint x="270" y="520" as="sourcePoint" />
            <mxPoint x="320" y="470" as="targetPoint" />
          </mxGeometry>
        </mxCell>
        <mxCell id="IF1hP8kjKiguyNGJnmrY-27" value="&amp;lt;&amp;lt;include&amp;gt;&amp;gt;" style="edgeLabel;html=1;align=center;verticalAlign=middle;resizable=0;points=[];" parent="IF1hP8kjKiguyNGJnmrY-26" vertex="1" connectable="0">
          <mxGeometry x="0.0025" y="1" relative="1" as="geometry">
            <mxPoint x="7" y="-4" as="offset" />
          </mxGeometry>
        </mxCell>
        <mxCell id="IF1hP8kjKiguyNGJnmrY-28" value="Editar produto existente" style="ellipse;whiteSpace=wrap;html=1;fillColor=#1ba1e2;fontColor=#ffffff;strokeColor=#006EAF;" parent="1" vertex="1">
          <mxGeometry x="420" y="400" width="100" height="70" as="geometry" />
        </mxCell>
        <mxCell id="IF1hP8kjKiguyNGJnmrY-29" value="Excluir produto" style="ellipse;whiteSpace=wrap;html=1;fillColor=#1ba1e2;fontColor=#ffffff;strokeColor=#006EAF;" parent="1" vertex="1">
          <mxGeometry x="400" y="470" width="100" height="70" as="geometry" />
        </mxCell>
        <mxCell id="IF1hP8kjKiguyNGJnmrY-30" value="Verificar estoque do produto" style="ellipse;whiteSpace=wrap;html=1;fillColor=#1ba1e2;fontColor=#ffffff;strokeColor=#006EAF;" parent="1" vertex="1">
          <mxGeometry x="284" y="520" width="100" height="70" as="geometry" />
        </mxCell>
        <mxCell id="IF1hP8kjKiguyNGJnmrY-31" value="" style="endArrow=classic;html=1;rounded=0;entryX=1;entryY=0.5;entryDx=0;entryDy=0;exitX=0;exitY=0.5;exitDx=0;exitDy=0;dashed=1;" parent="1" source="IF1hP8kjKiguyNGJnmrY-28" target="IF1hP8kjKiguyNGJnmrY-24" edge="1">
          <mxGeometry width="50" height="50" relative="1" as="geometry">
            <mxPoint x="403" y="409" as="sourcePoint" />
            <mxPoint x="323" y="447" as="targetPoint" />
          </mxGeometry>
        </mxCell>
        <mxCell id="IF1hP8kjKiguyNGJnmrY-32" value="&amp;lt;&amp;lt;extends&amp;gt;&amp;gt;" style="edgeLabel;html=1;align=center;verticalAlign=middle;resizable=0;points=[];" parent="IF1hP8kjKiguyNGJnmrY-31" vertex="1" connectable="0">
          <mxGeometry x="0.0025" y="1" relative="1" as="geometry">
            <mxPoint x="7" y="1" as="offset" />
          </mxGeometry>
        </mxCell>
        <mxCell id="IF1hP8kjKiguyNGJnmrY-33" value="" style="endArrow=classic;html=1;rounded=0;entryX=1;entryY=0.5;entryDx=0;entryDy=0;exitX=0.5;exitY=0;exitDx=0;exitDy=0;dashed=1;" parent="1" source="IF1hP8kjKiguyNGJnmrY-30" edge="1">
          <mxGeometry width="50" height="50" relative="1" as="geometry">
            <mxPoint x="380" y="490" as="sourcePoint" />
            <mxPoint x="280" y="480" as="targetPoint" />
          </mxGeometry>
        </mxCell>
        <mxCell id="IF1hP8kjKiguyNGJnmrY-34" value="&amp;lt;&amp;lt;include&amp;gt;&amp;gt;" style="edgeLabel;html=1;align=center;verticalAlign=middle;resizable=0;points=[];" parent="IF1hP8kjKiguyNGJnmrY-33" vertex="1" connectable="0">
          <mxGeometry x="0.0025" y="1" relative="1" as="geometry">
            <mxPoint x="7" y="1" as="offset" />
          </mxGeometry>
        </mxCell>
        <mxCell id="IF1hP8kjKiguyNGJnmrY-35" value="" style="endArrow=classic;html=1;rounded=0;entryX=1;entryY=1;entryDx=0;entryDy=0;exitX=0.062;exitY=0.257;exitDx=0;exitDy=0;dashed=1;exitPerimeter=0;" parent="1" source="IF1hP8kjKiguyNGJnmrY-29" target="IF1hP8kjKiguyNGJnmrY-24" edge="1">
          <mxGeometry width="50" height="50" relative="1" as="geometry">
            <mxPoint x="450" y="485" as="sourcePoint" />
            <mxPoint x="350" y="475" as="targetPoint" />
          </mxGeometry>
        </mxCell>
        <mxCell id="IF1hP8kjKiguyNGJnmrY-36" value="&amp;lt;&amp;lt;extends&amp;gt;&amp;gt;" style="edgeLabel;html=1;align=center;verticalAlign=middle;resizable=0;points=[];" parent="IF1hP8kjKiguyNGJnmrY-35" vertex="1" connectable="0">
          <mxGeometry x="0.0025" y="1" relative="1" as="geometry">
            <mxPoint x="7" y="1" as="offset" />
          </mxGeometry>
        </mxCell>
        <mxCell id="IF1hP8kjKiguyNGJnmrY-37" value="" style="endArrow=classic;html=1;rounded=0;" parent="1" edge="1">
          <mxGeometry width="50" height="50" relative="1" as="geometry">
            <mxPoint x="140" y="454.65999999999997" as="sourcePoint" />
            <mxPoint x="200" y="454.65999999999997" as="targetPoint" />
          </mxGeometry>
        </mxCell>
        <mxCell id="IF1hP8kjKiguyNGJnmrY-38" value="Definir preços e promoções" style="ellipse;whiteSpace=wrap;html=1;fillColor=#1ba1e2;fontColor=#ffffff;strokeColor=#006EAF;" parent="1" vertex="1">
          <mxGeometry x="140" y="320" width="97" height="70" as="geometry" />
        </mxCell>
        <mxCell id="IF1hP8kjKiguyNGJnmrY-39" value="" style="endArrow=classic;html=1;rounded=0;dashed=1;entryX=0.318;entryY=0.1;entryDx=0;entryDy=0;entryPerimeter=0;" parent="1" source="IF1hP8kjKiguyNGJnmrY-38" target="IF1hP8kjKiguyNGJnmrY-24" edge="1">
          <mxGeometry width="50" height="50" relative="1" as="geometry">
            <mxPoint x="94" y="496.5" as="sourcePoint" />
            <mxPoint x="237.80637877723518" y="433.5022579057048" as="targetPoint" />
          </mxGeometry>
        </mxCell>
        <mxCell id="IF1hP8kjKiguyNGJnmrY-40" value="&amp;lt;&amp;lt;include&amp;gt;&amp;gt;" style="edgeLabel;html=1;align=center;verticalAlign=middle;resizable=0;points=[];" parent="IF1hP8kjKiguyNGJnmrY-39" vertex="1" connectable="0">
          <mxGeometry x="0.0025" y="1" relative="1" as="geometry">
            <mxPoint x="7" y="-4" as="offset" />
          </mxGeometry>
        </mxCell>
        <mxCell id="IF1hP8kjKiguyNGJnmrY-41" value="Adicionar novos produtos ao catálogo" style="ellipse;whiteSpace=wrap;html=1;fillColor=#1ba1e2;fontColor=#ffffff;strokeColor=#006EAF;" parent="1" vertex="1">
          <mxGeometry x="370" y="333" width="100" height="70" as="geometry" />
        </mxCell>
        <mxCell id="IF1hP8kjKiguyNGJnmrY-42" value="" style="endArrow=classic;html=1;rounded=0;entryX=0.971;entryY=0.254;entryDx=0;entryDy=0;exitX=0;exitY=1;exitDx=0;exitDy=0;dashed=1;entryPerimeter=0;" parent="1" source="IF1hP8kjKiguyNGJnmrY-41" target="IF1hP8kjKiguyNGJnmrY-24" edge="1">
          <mxGeometry width="50" height="50" relative="1" as="geometry">
            <mxPoint x="277" y="513" as="sourcePoint" />
            <mxPoint x="320" y="430" as="targetPoint" />
          </mxGeometry>
        </mxCell>
        <mxCell id="IF1hP8kjKiguyNGJnmrY-43" value="&amp;lt;&amp;lt;include&amp;gt;&amp;gt;" style="edgeLabel;html=1;align=center;verticalAlign=middle;resizable=0;points=[];" parent="IF1hP8kjKiguyNGJnmrY-42" vertex="1" connectable="0">
          <mxGeometry x="0.0025" y="1" relative="1" as="geometry">
            <mxPoint x="7" y="-4" as="offset" />
          </mxGeometry>
        </mxCell>
        <mxCell id="IF1hP8kjKiguyNGJnmrY-44" value="&lt;span data-end=&quot;163&quot; data-start=&quot;135&quot;&gt;Cliente&lt;/span&gt;" style="shape=umlActor;verticalLabelPosition=bottom;verticalAlign=top;html=1;outlineConnect=0;" parent="1" vertex="1">
          <mxGeometry x="110" y="760" width="30" height="60" as="geometry" />
        </mxCell>
        <mxCell id="IF1hP8kjKiguyNGJnmrY-45" value="[RF003]&amp;nbsp;&lt;div&gt;&lt;div&gt;Realizar pedidos&lt;/div&gt;&lt;/div&gt;" style="ellipse;whiteSpace=wrap;html=1;fillColor=#dae8fc;strokeColor=#6c8ebf;" parent="1" vertex="1">
          <mxGeometry x="210" y="770" width="120" height="50" as="geometry" />
        </mxCell>
        <mxCell id="IF1hP8kjKiguyNGJnmrY-46" value="Aplicar cupons de desconto" style="ellipse;whiteSpace=wrap;html=1;fillColor=#1ba1e2;fontColor=#ffffff;strokeColor=#006EAF;" parent="1" vertex="1">
          <mxGeometry x="270" y="650" width="110" height="70" as="geometry" />
        </mxCell>
        <mxCell id="IF1hP8kjKiguyNGJnmrY-47" value="" style="endArrow=classic;html=1;rounded=0;entryX=1;entryY=0;entryDx=0;entryDy=0;exitX=0.278;exitY=0.934;exitDx=0;exitDy=0;exitPerimeter=0;dashed=1;" parent="1" source="IF1hP8kjKiguyNGJnmrY-46" target="IF1hP8kjKiguyNGJnmrY-45" edge="1">
          <mxGeometry width="50" height="50" relative="1" as="geometry">
            <mxPoint x="270" y="860" as="sourcePoint" />
            <mxPoint x="320" y="810" as="targetPoint" />
          </mxGeometry>
        </mxCell>
        <mxCell id="IF1hP8kjKiguyNGJnmrY-48" value="&amp;lt;&amp;lt;include&amp;gt;&amp;gt;" style="edgeLabel;html=1;align=center;verticalAlign=middle;resizable=0;points=[];" parent="IF1hP8kjKiguyNGJnmrY-47" vertex="1" connectable="0">
          <mxGeometry x="0.0025" y="1" relative="1" as="geometry">
            <mxPoint x="7" y="-4" as="offset" />
          </mxGeometry>
        </mxCell>
        <mxCell id="IF1hP8kjKiguyNGJnmrY-49" value="Salvar pedido para compras futuras&amp;nbsp;" style="ellipse;whiteSpace=wrap;html=1;fillColor=#1ba1e2;fontColor=#ffffff;strokeColor=#006EAF;" parent="1" vertex="1">
          <mxGeometry x="410" y="790" width="100" height="70" as="geometry" />
        </mxCell>
        <mxCell id="IF1hP8kjKiguyNGJnmrY-51" value="Definir data de entrega preferencial" style="ellipse;whiteSpace=wrap;html=1;fillColor=#1ba1e2;fontColor=#ffffff;strokeColor=#006EAF;" parent="1" vertex="1">
          <mxGeometry x="284" y="860" width="100" height="70" as="geometry" />
        </mxCell>
        <mxCell id="IF1hP8kjKiguyNGJnmrY-52" value="" style="endArrow=classic;html=1;rounded=0;entryX=1;entryY=0.5;entryDx=0;entryDy=0;exitX=0;exitY=0.5;exitDx=0;exitDy=0;dashed=1;" parent="1" source="IF1hP8kjKiguyNGJnmrY-49" target="IF1hP8kjKiguyNGJnmrY-45" edge="1">
          <mxGeometry width="50" height="50" relative="1" as="geometry">
            <mxPoint x="403" y="749" as="sourcePoint" />
            <mxPoint x="323" y="787" as="targetPoint" />
          </mxGeometry>
        </mxCell>
        <mxCell id="IF1hP8kjKiguyNGJnmrY-53" value="&amp;lt;&amp;lt;extends&amp;gt;&amp;gt;" style="edgeLabel;html=1;align=center;verticalAlign=middle;resizable=0;points=[];" parent="IF1hP8kjKiguyNGJnmrY-52" vertex="1" connectable="0">
          <mxGeometry x="0.0025" y="1" relative="1" as="geometry">
            <mxPoint x="7" y="1" as="offset" />
          </mxGeometry>
        </mxCell>
        <mxCell id="IF1hP8kjKiguyNGJnmrY-54" value="" style="endArrow=classic;html=1;rounded=0;entryX=1;entryY=0.5;entryDx=0;entryDy=0;exitX=0.5;exitY=0;exitDx=0;exitDy=0;dashed=1;" parent="1" source="IF1hP8kjKiguyNGJnmrY-51" edge="1">
          <mxGeometry width="50" height="50" relative="1" as="geometry">
            <mxPoint x="380" y="830" as="sourcePoint" />
            <mxPoint x="280" y="820" as="targetPoint" />
          </mxGeometry>
        </mxCell>
        <mxCell id="IF1hP8kjKiguyNGJnmrY-55" value="&amp;lt;&amp;lt;include&amp;gt;&amp;gt;" style="edgeLabel;html=1;align=center;verticalAlign=middle;resizable=0;points=[];" parent="IF1hP8kjKiguyNGJnmrY-54" vertex="1" connectable="0">
          <mxGeometry x="0.0025" y="1" relative="1" as="geometry">
            <mxPoint x="7" y="1" as="offset" />
          </mxGeometry>
        </mxCell>
        <mxCell id="IF1hP8kjKiguyNGJnmrY-58" value="" style="endArrow=classic;html=1;rounded=0;" parent="1" edge="1">
          <mxGeometry width="50" height="50" relative="1" as="geometry">
            <mxPoint x="140" y="794.66" as="sourcePoint" />
            <mxPoint x="200" y="794.66" as="targetPoint" />
          </mxGeometry>
        </mxCell>
        <mxCell id="IF1hP8kjKiguyNGJnmrY-59" value="Visualizar itens recomendados ou promoções" style="ellipse;whiteSpace=wrap;html=1;fillColor=#1ba1e2;fontColor=#ffffff;strokeColor=#006EAF;" parent="1" vertex="1">
          <mxGeometry x="163" y="660" width="97" height="70" as="geometry" />
        </mxCell>
        <mxCell id="IF1hP8kjKiguyNGJnmrY-60" value="" style="endArrow=classic;html=1;rounded=0;dashed=1;entryX=0.318;entryY=0.1;entryDx=0;entryDy=0;entryPerimeter=0;" parent="1" source="IF1hP8kjKiguyNGJnmrY-59" target="IF1hP8kjKiguyNGJnmrY-45" edge="1">
          <mxGeometry width="50" height="50" relative="1" as="geometry">
            <mxPoint x="94" y="836.5" as="sourcePoint" />
            <mxPoint x="237.80637877723518" y="773.5022579057048" as="targetPoint" />
          </mxGeometry>
        </mxCell>
        <mxCell id="IF1hP8kjKiguyNGJnmrY-61" value="&amp;lt;&amp;lt;include&amp;gt;&amp;gt;" style="edgeLabel;html=1;align=center;verticalAlign=middle;resizable=0;points=[];" parent="IF1hP8kjKiguyNGJnmrY-60" vertex="1" connectable="0">
          <mxGeometry x="0.0025" y="1" relative="1" as="geometry">
            <mxPoint x="7" y="-4" as="offset" />
          </mxGeometry>
        </mxCell>
        <mxCell id="IF1hP8kjKiguyNGJnmrY-62" value="Selecionar endereço de entrega" style="ellipse;whiteSpace=wrap;html=1;fillColor=#1ba1e2;fontColor=#ffffff;strokeColor=#006EAF;" parent="1" vertex="1">
          <mxGeometry x="380" y="690" width="100" height="70" as="geometry" />
        </mxCell>
        <mxCell id="IF1hP8kjKiguyNGJnmrY-63" value="" style="endArrow=classic;html=1;rounded=0;entryX=0.971;entryY=0.254;entryDx=0;entryDy=0;exitX=0;exitY=1;exitDx=0;exitDy=0;dashed=1;entryPerimeter=0;" parent="1" source="IF1hP8kjKiguyNGJnmrY-62" target="IF1hP8kjKiguyNGJnmrY-45" edge="1">
          <mxGeometry width="50" height="50" relative="1" as="geometry">
            <mxPoint x="277" y="853" as="sourcePoint" />
            <mxPoint x="320" y="770" as="targetPoint" />
          </mxGeometry>
        </mxCell>
        <mxCell id="IF1hP8kjKiguyNGJnmrY-64" value="&amp;lt;&amp;lt;include&amp;gt;&amp;gt;" style="edgeLabel;html=1;align=center;verticalAlign=middle;resizable=0;points=[];" parent="IF1hP8kjKiguyNGJnmrY-63" vertex="1" connectable="0">
          <mxGeometry x="0.0025" y="1" relative="1" as="geometry">
            <mxPoint x="7" y="-4" as="offset" />
          </mxGeometry>
        </mxCell>
        <mxCell id="IF1hP8kjKiguyNGJnmrY-65" value="&lt;span data-end=&quot;163&quot; data-start=&quot;135&quot;&gt;Cliente&lt;/span&gt;" style="shape=umlActor;verticalLabelPosition=bottom;verticalAlign=top;html=1;outlineConnect=0;" parent="1" vertex="1">
          <mxGeometry x="130" y="1070" width="30" height="60" as="geometry" />
        </mxCell>
        <mxCell id="IF1hP8kjKiguyNGJnmrY-66" value="[RF004]&amp;nbsp;&lt;div&gt;&lt;div&gt;Efetuar pagamento&lt;/div&gt;&lt;/div&gt;" style="ellipse;whiteSpace=wrap;html=1;fillColor=#dae8fc;strokeColor=#6c8ebf;" parent="1" vertex="1">
          <mxGeometry x="230" y="1080" width="120" height="50" as="geometry" />
        </mxCell>
        <mxCell id="IF1hP8kjKiguyNGJnmrY-67" value="Emitir nota fiscal ou recibo de pagamento" style="ellipse;whiteSpace=wrap;html=1;fillColor=#1ba1e2;fontColor=#ffffff;strokeColor=#006EAF;" parent="1" vertex="1">
          <mxGeometry x="290" y="960" width="120" height="70" as="geometry" />
        </mxCell>
        <mxCell id="IF1hP8kjKiguyNGJnmrY-68" value="" style="endArrow=classic;html=1;rounded=0;entryX=1;entryY=0;entryDx=0;entryDy=0;exitX=0.278;exitY=0.934;exitDx=0;exitDy=0;exitPerimeter=0;dashed=1;" parent="1" source="IF1hP8kjKiguyNGJnmrY-67" target="IF1hP8kjKiguyNGJnmrY-66" edge="1">
          <mxGeometry width="50" height="50" relative="1" as="geometry">
            <mxPoint x="290" y="1170" as="sourcePoint" />
            <mxPoint x="340" y="1120" as="targetPoint" />
          </mxGeometry>
        </mxCell>
        <mxCell id="IF1hP8kjKiguyNGJnmrY-69" value="&amp;lt;&amp;lt;include&amp;gt;&amp;gt;" style="edgeLabel;html=1;align=center;verticalAlign=middle;resizable=0;points=[];" parent="IF1hP8kjKiguyNGJnmrY-68" vertex="1" connectable="0">
          <mxGeometry x="0.0025" y="1" relative="1" as="geometry">
            <mxPoint x="7" y="-4" as="offset" />
          </mxGeometry>
        </mxCell>
        <mxCell id="IF1hP8kjKiguyNGJnmrY-70" value="Gerenciar métodos de pagamento salvos" style="ellipse;whiteSpace=wrap;html=1;fillColor=#1ba1e2;fontColor=#ffffff;strokeColor=#006EAF;" parent="1" vertex="1">
          <mxGeometry x="430" y="1100" width="130" height="70" as="geometry" />
        </mxCell>
        <mxCell id="IF1hP8kjKiguyNGJnmrY-72" value="" style="endArrow=classic;html=1;rounded=0;entryX=1;entryY=0.5;entryDx=0;entryDy=0;exitX=0;exitY=0.5;exitDx=0;exitDy=0;dashed=1;" parent="1" source="IF1hP8kjKiguyNGJnmrY-70" target="IF1hP8kjKiguyNGJnmrY-66" edge="1">
          <mxGeometry width="50" height="50" relative="1" as="geometry">
            <mxPoint x="423" y="1059" as="sourcePoint" />
            <mxPoint x="343" y="1097" as="targetPoint" />
          </mxGeometry>
        </mxCell>
        <mxCell id="IF1hP8kjKiguyNGJnmrY-73" value="&amp;lt;&amp;lt;extends&amp;gt;&amp;gt;" style="edgeLabel;html=1;align=center;verticalAlign=middle;resizable=0;points=[];" parent="IF1hP8kjKiguyNGJnmrY-72" vertex="1" connectable="0">
          <mxGeometry x="0.0025" y="1" relative="1" as="geometry">
            <mxPoint x="7" y="1" as="offset" />
          </mxGeometry>
        </mxCell>
        <mxCell id="IF1hP8kjKiguyNGJnmrY-76" value="" style="endArrow=classic;html=1;rounded=0;" parent="1" edge="1">
          <mxGeometry width="50" height="50" relative="1" as="geometry">
            <mxPoint x="160" y="1104.6599999999999" as="sourcePoint" />
            <mxPoint x="220" y="1104.6599999999999" as="targetPoint" />
          </mxGeometry>
        </mxCell>
        <mxCell id="IF1hP8kjKiguyNGJnmrY-77" value="Confirmar pagamento" style="ellipse;whiteSpace=wrap;html=1;fillColor=#1ba1e2;fontColor=#ffffff;strokeColor=#006EAF;" parent="1" vertex="1">
          <mxGeometry x="183" y="970" width="97" height="70" as="geometry" />
        </mxCell>
        <mxCell id="IF1hP8kjKiguyNGJnmrY-78" value="" style="endArrow=classic;html=1;rounded=0;dashed=1;entryX=0.591;entryY=0.957;entryDx=0;entryDy=0;entryPerimeter=0;exitX=0.376;exitY=0.081;exitDx=0;exitDy=0;exitPerimeter=0;" parent="1" source="IF1hP8kjKiguyNGJnmrY-66" target="IF1hP8kjKiguyNGJnmrY-77" edge="1">
          <mxGeometry width="50" height="50" relative="1" as="geometry">
            <mxPoint x="190" y="1070" as="sourcePoint" />
            <mxPoint x="257.8063787772352" y="1083.502257905705" as="targetPoint" />
          </mxGeometry>
        </mxCell>
        <mxCell id="IF1hP8kjKiguyNGJnmrY-79" value="&amp;lt;&amp;lt;include&amp;gt;&amp;gt;" style="edgeLabel;html=1;align=center;verticalAlign=middle;resizable=0;points=[];" parent="IF1hP8kjKiguyNGJnmrY-78" vertex="1" connectable="0">
          <mxGeometry x="0.0025" y="1" relative="1" as="geometry">
            <mxPoint x="7" y="-4" as="offset" />
          </mxGeometry>
        </mxCell>
        <mxCell id="IF1hP8kjKiguyNGJnmrY-80" value="Realizar pagamento com parcelamento" style="ellipse;whiteSpace=wrap;html=1;fillColor=#1ba1e2;fontColor=#ffffff;strokeColor=#006EAF;" parent="1" vertex="1">
          <mxGeometry x="400" y="1000" width="100" height="70" as="geometry" />
        </mxCell>
        <mxCell id="IF1hP8kjKiguyNGJnmrY-81" value="" style="endArrow=classic;html=1;rounded=0;entryX=0.971;entryY=0.254;entryDx=0;entryDy=0;exitX=0;exitY=1;exitDx=0;exitDy=0;dashed=1;entryPerimeter=0;" parent="1" source="IF1hP8kjKiguyNGJnmrY-80" target="IF1hP8kjKiguyNGJnmrY-66" edge="1">
          <mxGeometry width="50" height="50" relative="1" as="geometry">
            <mxPoint x="297" y="1163" as="sourcePoint" />
            <mxPoint x="340" y="1080" as="targetPoint" />
          </mxGeometry>
        </mxCell>
        <mxCell id="IF1hP8kjKiguyNGJnmrY-82" value="&amp;lt;&amp;lt;extends&amp;gt;&amp;gt;" style="edgeLabel;html=1;align=center;verticalAlign=middle;resizable=0;points=[];" parent="IF1hP8kjKiguyNGJnmrY-81" vertex="1" connectable="0">
          <mxGeometry x="0.0025" y="1" relative="1" as="geometry">
            <mxPoint x="7" y="-4" as="offset" />
          </mxGeometry>
        </mxCell>
        <mxCell id="PyBOIgR80TQrp6TVW3yV-2" value="&lt;span data-end=&quot;163&quot; data-start=&quot;135&quot;&gt;Cliente&lt;/span&gt;" style="shape=umlActor;verticalLabelPosition=bottom;verticalAlign=top;html=1;outlineConnect=0;" parent="1" vertex="1">
          <mxGeometry x="140" y="1340" width="30" height="60" as="geometry" />
        </mxCell>
        <mxCell id="PyBOIgR80TQrp6TVW3yV-3" value="[RF005]&amp;nbsp;&lt;div&gt;Avaliar produtos&lt;/div&gt;" style="ellipse;whiteSpace=wrap;html=1;fillColor=#dae8fc;strokeColor=#6c8ebf;" parent="1" vertex="1">
          <mxGeometry x="240" y="1350" width="120" height="50" as="geometry" />
        </mxCell>
        <mxCell id="PyBOIgR80TQrp6TVW3yV-4" value="Visualizar avaliações anteriores de outros clientes" style="ellipse;whiteSpace=wrap;html=1;fillColor=#1ba1e2;fontColor=#ffffff;strokeColor=#006EAF;" parent="1" vertex="1">
          <mxGeometry x="260" y="1220" width="140" height="80" as="geometry" />
        </mxCell>
        <mxCell id="PyBOIgR80TQrp6TVW3yV-5" value="" style="endArrow=classic;html=1;rounded=0;entryX=1;entryY=0;entryDx=0;entryDy=0;exitX=0.278;exitY=0.934;exitDx=0;exitDy=0;exitPerimeter=0;dashed=1;" parent="1" source="PyBOIgR80TQrp6TVW3yV-4" target="PyBOIgR80TQrp6TVW3yV-3" edge="1">
          <mxGeometry width="50" height="50" relative="1" as="geometry">
            <mxPoint x="300" y="1440" as="sourcePoint" />
            <mxPoint x="350" y="1390" as="targetPoint" />
          </mxGeometry>
        </mxCell>
        <mxCell id="PyBOIgR80TQrp6TVW3yV-6" value="&amp;lt;&amp;lt;include&amp;gt;&amp;gt;" style="edgeLabel;html=1;align=center;verticalAlign=middle;resizable=0;points=[];" parent="PyBOIgR80TQrp6TVW3yV-5" vertex="1" connectable="0">
          <mxGeometry x="0.0025" y="1" relative="1" as="geometry">
            <mxPoint x="7" y="-4" as="offset" />
          </mxGeometry>
        </mxCell>
        <mxCell id="PyBOIgR80TQrp6TVW3yV-7" value="Compartilhar avaliação nas redes sociais" style="ellipse;whiteSpace=wrap;html=1;fillColor=#1ba1e2;fontColor=#ffffff;strokeColor=#006EAF;" parent="1" vertex="1">
          <mxGeometry x="440" y="1370" width="130" height="70" as="geometry" />
        </mxCell>
        <mxCell id="PyBOIgR80TQrp6TVW3yV-8" value="" style="endArrow=classic;html=1;rounded=0;entryX=1;entryY=0.5;entryDx=0;entryDy=0;exitX=0;exitY=0.5;exitDx=0;exitDy=0;dashed=1;" parent="1" source="PyBOIgR80TQrp6TVW3yV-7" target="PyBOIgR80TQrp6TVW3yV-3" edge="1">
          <mxGeometry width="50" height="50" relative="1" as="geometry">
            <mxPoint x="433" y="1329" as="sourcePoint" />
            <mxPoint x="353" y="1367" as="targetPoint" />
          </mxGeometry>
        </mxCell>
        <mxCell id="PyBOIgR80TQrp6TVW3yV-9" value="&amp;lt;&amp;lt;extends&amp;gt;&amp;gt;" style="edgeLabel;html=1;align=center;verticalAlign=middle;resizable=0;points=[];" parent="PyBOIgR80TQrp6TVW3yV-8" vertex="1" connectable="0">
          <mxGeometry x="0.0025" y="1" relative="1" as="geometry">
            <mxPoint x="7" y="1" as="offset" />
          </mxGeometry>
        </mxCell>
        <mxCell id="PyBOIgR80TQrp6TVW3yV-10" value="" style="endArrow=classic;html=1;rounded=0;" parent="1" edge="1">
          <mxGeometry width="50" height="50" relative="1" as="geometry">
            <mxPoint x="170" y="1374.6599999999999" as="sourcePoint" />
            <mxPoint x="230" y="1374.6599999999999" as="targetPoint" />
          </mxGeometry>
        </mxCell>
        <mxCell id="PyBOIgR80TQrp6TVW3yV-14" value="Alterar avaliação do produto" style="ellipse;whiteSpace=wrap;html=1;fillColor=#1ba1e2;fontColor=#ffffff;strokeColor=#006EAF;" parent="1" vertex="1">
          <mxGeometry x="410" y="1270" width="100" height="70" as="geometry" />
        </mxCell>
        <mxCell id="PyBOIgR80TQrp6TVW3yV-15" value="" style="endArrow=classic;html=1;rounded=0;entryX=0.971;entryY=0.254;entryDx=0;entryDy=0;exitX=0;exitY=1;exitDx=0;exitDy=0;dashed=1;entryPerimeter=0;" parent="1" source="PyBOIgR80TQrp6TVW3yV-14" target="PyBOIgR80TQrp6TVW3yV-3" edge="1">
          <mxGeometry width="50" height="50" relative="1" as="geometry">
            <mxPoint x="307" y="1433" as="sourcePoint" />
            <mxPoint x="350" y="1350" as="targetPoint" />
          </mxGeometry>
        </mxCell>
        <mxCell id="PyBOIgR80TQrp6TVW3yV-16" value="&amp;lt;&amp;lt;extends&amp;gt;&amp;gt;" style="edgeLabel;html=1;align=center;verticalAlign=middle;resizable=0;points=[];" parent="PyBOIgR80TQrp6TVW3yV-15" vertex="1" connectable="0">
          <mxGeometry x="0.0025" y="1" relative="1" as="geometry">
            <mxPoint x="7" y="-4" as="offset" />
          </mxGeometry>
        </mxCell>
      </root>
    </mxGraphModel>
  </diagram>
</mxfile>
